<?xml version="1.0" standalone="no"?>
<!DOCTYPE svg PUBLIC "-//W3C//DTD SVG 20010904//EN"
 "http://www.w3.org/TR/2001/REC-SVG-20010904/DTD/svg10.dtd">
<svg version="1.0" xmlns="http://www.w3.org/2000/svg"
 width="96.000000pt" height="45.000000pt" viewBox="0 0 96.000000 45.000000"
 preserveAspectRatio="xMidYMid meet">

<g transform="translate(0.000000,45.000000) scale(0.100000,-0.100000)"
fill="#3467eb" stroke="none">
<path d="M682 370 c-18 -11 -35 -27 -38 -35 -4 -8 -15 -15 -26 -15 -64 0 -111
-64 -101 -138 l6 -43 17 28 c9 15 24 34 34 42 26 21 95 16 156 -13 66 -31 123
-33 168 -6 18 11 39 20 47 20 37 0 -1 105 -44 123 -14 6 -36 20 -49 31 -34 30
-127 33 -170 6z"/>
<path d="M377 323 c-13 -12 -7 -26 6 -15 6 6 28 12 47 15 35 4 35 4 -6 5 -22
1 -44 -1 -47 -5z"/>
<path d="M400 235 c0 -51 3 -65 15 -65 12 0 15 14 15 65 0 51 -3 65 -15 65
-12 0 -15 -14 -15 -65z"/>
<path d="M27 253 c-4 -3 -7 -21 -7 -39 0 -27 5 -35 25 -40 30 -7 32 -20 5 -27
-11 -3 -20 -12 -20 -20 0 -22 40 -10 65 19 20 23 27 24 137 25 128 0 146 8
134 55 -8 30 -32 27 -28 -4 3 -19 -2 -22 -27 -22 -24 0 -31 4 -31 20 0 11 -7
20 -15 20 -8 0 -15 -9 -15 -20 0 -18 -7 -20 -69 -20 -68 0 -69 1 -80 30 -8 24
-16 30 -39 30 -16 0 -32 -3 -35 -7z m48 -34 c10 -15 -1 -23 -20 -15 -9 3 -13
10 -10 16 8 13 22 13 30 -1z"/>
<path d="M565 185 c-34 -33 -33 -53 4 -47 19 3 60 -10 121 -37 136 -60 207
-55 245 19 14 27 21 80 11 80 -3 0 -26 -11 -52 -25 -60 -32 -70 -31 -161 5
-92 37 -135 39 -168 5z"/>
<path d="M326 143 c-11 -11 -6 -23 9 -23 8 0 15 4 15 9 0 13 -16 22 -24 14z"/>
<path d="M212 129 c2 -6 8 -10 13 -10 5 0 11 4 13 10 2 6 -4 11 -13 11 -9 0
-15 -5 -13 -11z"/>
<path d="M252 129 c2 -6 8 -10 13 -10 5 0 11 4 13 10 2 6 -4 11 -13 11 -9 0
-15 -5 -13 -11z"/>
</g>
</svg>
